<svg width="166" height="28" viewBox="0 0 166 28" fill="none" xmlns="http://www.w3.org/2000/svg">
<g clip-path="url(#clip0_33_1160)">
<path d="M21.2939 11.3828C21.3282 14.4942 22.1877 18.1946 24.987 19.9473C26.5895 20.9506 28.6129 21.0841 30.4525 20.6722L30.4728 20.6517C30.8797 18.79 30.7479 16.7415 29.7565 15.1204C28.024 12.2874 24.3677 11.4168 21.2939 11.3828Z" fill="#7ED321"/>
<path fill-rule="evenodd" clip-rule="evenodd" d="M22.985 4.46477C23.1087 4.81573 22.9279 5.20174 22.5811 5.32695C22.411 5.38836 22.2429 5.45395 22.0769 5.52363C21.7491 5.6612 21.4294 5.81465 21.1187 5.98305C20.8062 6.15244 20.5029 6.33695 20.2096 6.53563C19.9153 6.73508 19.631 6.94881 19.358 7.17584C19.0844 7.40331 18.8221 7.64413 18.5719 7.8973C18.3218 8.15047 18.0838 8.41599 17.8591 8.69285C17.6347 8.96918 17.4235 9.25681 17.2265 9.55475C17.0301 9.85153 16.8478 10.1585 16.6805 10.4748C16.5141 10.7892 16.3624 11.1128 16.2265 11.4445C16.0917 11.7735 15.9724 12.1105 15.8693 12.4547C15.7675 12.7949 15.6816 13.1421 15.6126 13.4955C15.5445 13.8437 15.4927 14.1979 15.4582 14.5574C15.4225 14.9283 15.0965 15.1997 14.7301 15.1636C14.3636 15.1275 14.0955 14.7976 14.1311 14.4267C14.1699 14.0231 14.2281 13.625 14.3046 13.2336C14.3822 12.8364 14.4788 12.446 14.5933 12.0634C14.7091 11.6764 14.8433 11.2975 14.9949 10.9277C15.1477 10.5547 15.3181 10.191 15.5051 9.83769C15.6932 9.4823 15.898 9.13741 16.1185 8.80408C16.3398 8.46946 16.577 8.14648 16.8288 7.83624C17.0812 7.5254 17.3483 7.22733 17.6291 6.94313C17.9099 6.65893 18.2044 6.38859 18.5116 6.13321C18.8181 5.87832 19.1373 5.63832 19.4679 5.4143C19.7973 5.19116 20.1381 4.98387 20.4892 4.79352C20.8383 4.60429 21.1977 4.43181 21.5662 4.27714C21.7529 4.19882 21.9419 4.12506 22.1331 4.05602C22.4799 3.93081 22.8613 4.11381 22.985 4.46477ZM32.0333 5.59963C32.2381 5.28998 32.6522 5.20701 32.9582 5.4143C33.2888 5.63832 33.608 5.87832 33.9145 6.13321C34.2216 6.38859 34.5162 6.65893 34.797 6.94313C35.0778 7.22733 35.3449 7.5254 35.5973 7.83624C35.8491 8.14648 36.0863 8.46946 36.3076 8.80408C36.5281 9.13741 36.7329 9.4823 36.921 9.83769C37.108 10.191 37.2784 10.5547 37.4312 10.9277C37.5827 11.2975 37.717 11.6764 37.8328 12.0634C37.9473 12.446 38.0439 12.8364 38.1215 13.2336C38.198 13.625 38.2562 14.0231 38.295 14.4267C38.3331 14.8229 38.3526 15.2245 38.3526 15.6305C38.3526 16.0365 38.3331 16.438 38.295 16.8342C38.2754 17.0373 38.251 17.239 38.2218 17.4392C38.1681 17.8078 37.8292 18.0625 37.465 18.0081C37.1007 17.9537 36.849 17.6107 36.9028 17.2421C36.9288 17.064 36.9505 16.8844 36.9679 16.7035C37.0018 16.3507 37.0192 15.9927 37.0192 15.6305C37.0192 15.2682 37.0018 14.9103 36.9679 14.5574C36.9333 14.1979 36.8816 13.8437 36.8135 13.4955C36.7445 13.1421 36.6586 12.7949 36.5567 12.4547C36.4537 12.1105 36.3344 11.7735 36.1996 11.4445C36.0636 11.1128 35.912 10.7892 35.7456 10.4748C35.5783 10.1585 35.3959 9.85153 35.1996 9.55475C35.0025 9.25681 34.7914 8.96918 34.567 8.69285C34.3423 8.41599 34.1043 8.15047 33.8542 7.8973C33.604 7.64413 33.3417 7.40331 33.0681 7.17584C32.795 6.94881 32.5108 6.73508 32.2164 6.53563C31.9105 6.32833 31.8285 5.90927 32.0333 5.59963ZM18.0051 23.7709C18.2528 23.4952 18.6744 23.4748 18.9469 23.7255C19.0809 23.8488 19.218 23.9687 19.358 24.0851C19.631 24.3121 19.9153 24.5259 20.2096 24.7253C20.5029 24.924 20.8062 25.1085 21.1187 25.2779C21.4294 25.4463 21.7491 25.5998 22.0769 25.7373C22.402 25.8737 22.735 25.9945 23.0751 26.0988C23.4112 26.2019 23.7543 26.2888 24.1034 26.3587C24.4475 26.4276 24.7976 26.4799 25.1527 26.5149C25.5014 26.5493 25.8551 26.5668 26.213 26.5668C26.571 26.5668 26.9247 26.5493 27.2733 26.5149C27.6285 26.4799 27.9786 26.4276 28.3227 26.3587C28.6718 26.2888 29.0149 26.2019 29.351 26.0988C29.6911 25.9945 30.0241 25.8737 30.3492 25.7373C30.677 25.5998 30.9967 25.4463 31.3074 25.2779C31.6319 25.102 32.036 25.2256 32.2098 25.5541C32.3836 25.8826 32.2614 26.2915 31.9369 26.4674C31.5878 26.6567 31.2284 26.8292 30.8599 26.9838C30.4945 27.1372 30.12 27.273 29.7376 27.3902C29.3596 27.5061 28.9739 27.6038 28.5814 27.6824C28.1946 27.7599 27.8013 27.8187 27.4025 27.858C27.011 27.8965 26.6142 27.9162 26.213 27.9162C25.8119 27.9162 25.4151 27.8965 25.0236 27.858C24.6248 27.8187 24.2315 27.7599 23.8447 27.6824C23.4522 27.6038 23.0664 27.5061 22.6885 27.3902C22.3061 27.273 21.9316 27.1372 21.5662 26.9838C21.1977 26.8292 20.8383 26.6567 20.4892 26.4674C20.1381 26.2771 19.7973 26.0698 19.4679 25.8467C19.1373 25.6226 18.8181 25.3826 18.5116 25.1278C18.3544 24.997 18.2005 24.8624 18.05 24.724C17.7776 24.4734 17.7575 24.0466 18.0051 23.7709Z" fill="#191919"/>
<path fill-rule="evenodd" clip-rule="evenodd" d="M26.2133 1.19678C27.8438 1.19678 29.1249 2.5326 29.1249 4.14344C29.1249 5.79357 27.805 7.0901 26.2133 7.0901C24.5829 7.0901 23.3018 5.75428 23.3018 4.14344C23.3018 2.5326 24.5829 1.19678 26.2133 1.19678Z" fill="#F8E71C"/>
<path fill-rule="evenodd" clip-rule="evenodd" d="M16.6638 17.9437C15.0649 17.9437 13.8077 19.2522 13.8077 20.8343C13.8077 22.4163 15.0649 23.7248 16.6638 23.7248C18.227 23.7248 19.5199 22.4524 19.5199 20.8343C19.5199 19.2522 18.2626 17.9437 16.6638 17.9437ZM12.5854 20.8343C12.5854 18.5798 14.3793 16.7068 16.6638 16.7068C18.9482 16.7068 20.7421 18.5798 20.7421 20.8343C20.7421 23.1462 18.8914 24.9617 16.6638 24.9617C14.3793 24.9617 12.5854 23.0887 12.5854 20.8343Z" fill="#191919"/>
<path fill-rule="evenodd" clip-rule="evenodd" d="M36.343 17.9437C34.7441 17.9437 33.4869 19.2522 33.4869 20.8343C33.4869 22.4163 34.7441 23.7248 36.343 23.7248C37.9062 23.7248 39.1991 22.4524 39.1991 20.8343C39.1991 19.2522 37.9418 17.9437 36.343 17.9437ZM32.2646 20.8343C32.2646 18.5798 34.0585 16.7068 36.343 16.7068C38.6274 16.7068 40.4213 18.5798 40.4213 20.8343C40.4213 23.1462 38.5706 24.9617 36.343 24.9617C34.0585 24.9617 32.2646 23.0887 32.2646 20.8343Z" fill="#191919"/>
<path fill-rule="evenodd" clip-rule="evenodd" d="M26.2131 1.24134C24.6143 1.24134 23.357 2.5498 23.357 4.13186C23.357 5.71393 24.6143 7.02239 26.2131 7.02239C27.7763 7.02239 29.0692 5.74997 29.0692 4.13186C29.0692 2.5498 27.8119 1.24134 26.2131 1.24134ZM22.1348 4.13186C22.1348 1.87743 23.9286 0.00439453 26.2131 0.00439453C28.4975 0.00439453 30.2914 1.87743 30.2914 4.13186C30.2914 6.44384 28.4407 8.25933 26.2131 8.25933C23.9286 8.25933 22.1348 6.3863 22.1348 4.13186Z" fill="#191919"/>
</g>
<path d="M48.86 20.5L53.684 7.9H55.376L60.2 20.5H58.364L57.158 17.368H51.83L50.624 20.5H48.86ZM52.388 15.892H56.6L54.494 10.06L52.388 15.892ZM61.9986 20.5V10.96H68.4786V12.364H63.5826V20.5H61.9986ZM70.2779 24.1V10.96H71.7539V12.76C72.0779 12.124 72.5279 11.638 73.1039 11.302C73.6919 10.954 74.3699 10.78 75.1379 10.78C76.3379 10.78 77.2979 11.176 78.0179 11.968C78.7379 12.748 79.0979 13.912 79.0979 15.46V15.82C79.0979 16.9 78.9299 17.8 78.5939 18.52C78.2699 19.24 77.8079 19.78 77.2079 20.14C76.6199 20.5 75.9299 20.68 75.1379 20.68C74.3219 20.68 73.6379 20.5 73.0859 20.14C72.5459 19.78 72.1379 19.33 71.8619 18.79V24.1H70.2779ZM74.7779 19.276C75.5579 19.276 76.2059 18.982 76.7219 18.394C77.2499 17.806 77.5139 16.948 77.5139 15.82V15.46C77.5139 14.416 77.2499 13.612 76.7219 13.048C76.2059 12.472 75.5579 12.184 74.7779 12.184C74.2019 12.184 73.6919 12.304 73.2479 12.544C72.8159 12.784 72.4739 13.114 72.2219 13.534C71.9819 13.942 71.8619 14.404 71.8619 14.92V16.36C71.8619 16.936 71.9819 17.446 72.2219 17.89C72.4739 18.322 72.8159 18.664 73.2479 18.916C73.6919 19.156 74.2019 19.276 74.7779 19.276ZM85.3121 20.68C84.5081 20.68 83.7521 20.506 83.0441 20.158C82.3481 19.798 81.7841 19.258 81.3521 18.538C80.9321 17.818 80.7221 16.912 80.7221 15.82V15.46C80.7221 14.428 80.9321 13.564 81.3521 12.868C81.7841 12.172 82.3481 11.65 83.0441 11.302C83.7521 10.954 84.5081 10.78 85.3121 10.78C86.1281 10.78 86.8841 10.954 87.5801 11.302C88.2761 11.65 88.8341 12.172 89.2541 12.868C89.6861 13.564 89.9021 14.428 89.9021 15.46V15.82C89.9021 16.912 89.6861 17.818 89.2541 18.538C88.8341 19.258 88.2761 19.798 87.5801 20.158C86.8841 20.506 86.1281 20.68 85.3121 20.68ZM85.3121 19.24C85.8041 19.24 86.2721 19.132 86.7161 18.916C87.1721 18.688 87.5441 18.322 87.8321 17.818C88.1321 17.314 88.2821 16.648 88.2821 15.82V15.46C88.2821 14.692 88.1321 14.074 87.8321 13.606C87.5441 13.126 87.1721 12.778 86.7161 12.562C86.2721 12.334 85.8041 12.22 85.3121 12.22C84.8321 12.22 84.3641 12.334 83.9081 12.562C83.4521 12.778 83.0741 13.126 82.7741 13.606C82.4861 14.074 82.3421 14.692 82.3421 15.46V15.82C82.3421 16.648 82.4861 17.314 82.7741 17.818C83.0741 18.322 83.4521 18.688 83.9081 18.916C84.3641 19.132 84.8321 19.24 85.3121 19.24ZM90.8035 20.5L94.3855 15.658L90.9835 10.96H92.8195L95.3395 14.434L97.8595 10.96H99.6235L96.2215 15.568L99.8035 20.5H97.9315L95.2675 16.774L92.6035 20.5H90.8035ZM105.298 20.68C104.494 20.68 103.738 20.506 103.03 20.158C102.334 19.81 101.77 19.276 101.338 18.556C100.918 17.836 100.708 16.924 100.708 15.82V15.46C100.708 14.404 100.912 13.534 101.32 12.85C101.728 12.154 102.268 11.638 102.94 11.302C103.612 10.954 104.338 10.78 105.118 10.78C106.522 10.78 107.608 11.164 108.376 11.932C109.144 12.7 109.528 13.786 109.528 15.19V16.198H102.292C102.292 16.942 102.442 17.536 102.742 17.98C103.054 18.424 103.438 18.748 103.894 18.952C104.362 19.144 104.83 19.24 105.298 19.24C106.018 19.24 106.57 19.12 106.954 18.88C107.35 18.64 107.632 18.31 107.8 17.89H109.348C109.156 18.802 108.682 19.498 107.926 19.978C107.182 20.446 106.306 20.68 105.298 20.68ZM105.208 12.22C104.716 12.22 104.248 12.316 103.804 12.508C103.36 12.688 102.994 12.976 102.706 13.372C102.43 13.768 102.292 14.278 102.292 14.902H108.034C108.022 14.242 107.884 13.72 107.62 13.336C107.368 12.94 107.032 12.658 106.612 12.49C106.192 12.31 105.724 12.22 105.208 12.22ZM111.154 20.68C111.07 20.68 110.98 20.674 110.884 20.662C110.8 20.65 110.71 20.638 110.614 20.626V19.042C110.65 19.054 110.74 19.06 110.884 19.06C111.244 19.06 111.538 18.904 111.766 18.592C111.994 18.268 112.156 17.704 112.252 16.9C112.36 16.084 112.414 14.944 112.414 13.48V10.96H119.254V20.5H117.67V12.364H113.998V13.84C113.998 15.172 113.938 16.282 113.818 17.17C113.698 18.046 113.518 18.742 113.278 19.258C113.05 19.774 112.756 20.14 112.396 20.356C112.036 20.572 111.622 20.68 111.154 20.68ZM122.133 20.5V10.96H130.053V20.5H128.469V12.364H123.717V20.5H122.133ZM136.886 20.68C136.082 20.68 135.326 20.506 134.618 20.158C133.922 19.81 133.358 19.276 132.926 18.556C132.506 17.836 132.296 16.924 132.296 15.82V15.46C132.296 14.404 132.5 13.534 132.908 12.85C133.316 12.154 133.856 11.638 134.528 11.302C135.2 10.954 135.926 10.78 136.706 10.78C138.11 10.78 139.196 11.164 139.964 11.932C140.732 12.7 141.116 13.786 141.116 15.19V16.198H133.88C133.88 16.942 134.03 17.536 134.33 17.98C134.642 18.424 135.026 18.748 135.482 18.952C135.95 19.144 136.418 19.24 136.886 19.24C137.606 19.24 138.158 19.12 138.542 18.88C138.938 18.64 139.22 18.31 139.388 17.89H140.936C140.744 18.802 140.27 19.498 139.514 19.978C138.77 20.446 137.894 20.68 136.886 20.68ZM136.796 12.22C136.304 12.22 135.836 12.316 135.392 12.508C134.948 12.688 134.582 12.976 134.294 13.372C134.018 13.768 133.88 14.278 133.88 14.902H139.622C139.61 14.242 139.472 13.72 139.208 13.336C138.956 12.94 138.62 12.658 138.2 12.49C137.78 12.31 137.312 12.22 136.796 12.22ZM143.368 24.1V10.96H144.844V12.76C145.168 12.124 145.618 11.638 146.194 11.302C146.782 10.954 147.46 10.78 148.228 10.78C149.428 10.78 150.388 11.176 151.108 11.968C151.828 12.748 152.188 13.912 152.188 15.46V15.82C152.188 16.9 152.02 17.8 151.684 18.52C151.36 19.24 150.898 19.78 150.298 20.14C149.71 20.5 149.02 20.68 148.228 20.68C147.412 20.68 146.728 20.5 146.176 20.14C145.636 19.78 145.228 19.33 144.952 18.79V24.1H143.368ZM147.868 19.276C148.648 19.276 149.296 18.982 149.812 18.394C150.34 17.806 150.604 16.948 150.604 15.82V15.46C150.604 14.416 150.34 13.612 149.812 13.048C149.296 12.472 148.648 12.184 147.868 12.184C147.292 12.184 146.782 12.304 146.338 12.544C145.906 12.784 145.564 13.114 145.312 13.534C145.072 13.942 144.952 14.404 144.952 14.92V16.36C144.952 16.936 145.072 17.446 145.312 17.89C145.564 18.322 145.906 18.664 146.338 18.916C146.782 19.156 147.292 19.276 147.868 19.276Z" fill="#323338"/>
<defs>
<clipPath id="clip0_33_1160">
<rect width="28" height="28" fill="white" transform="translate(12.5)"/>
</clipPath>
</defs>
</svg>
