<svg width="20" height="20" viewBox="0 0 20 20" fill="none" xmlns="http://www.w3.org/2000/svg">
<path d="M5.41667 11.25H11.25V10.4167H5.41667V11.25ZM5.41667 8.75H14.5833V7.91667H5.41667V8.75ZM5.41667 6.25H14.5833V5.41667H5.41667V6.25ZM2.5 16.7308V3.84583C2.5 3.4625 2.62861 3.1425 2.88583 2.88583C3.1425 2.62861 3.4625 2.5 3.84583 2.5H16.1542C16.5375 2.5 16.8575 2.62861 17.1142 2.88583C17.3714 3.1425 17.5 3.4625 17.5 3.84583V12.8208C17.5 13.2042 17.3717 13.5244 17.115 13.7817C16.8578 14.0383 16.5375 14.1667 16.1542 14.1667H5.06417L2.5 16.7308ZM4.70833 13.3333H16.1542C16.2819 13.3333 16.3994 13.28 16.5067 13.1733C16.6133 13.0661 16.6667 12.9486 16.6667 12.8208V3.84583C16.6667 3.71806 16.6133 3.60056 16.5067 3.49333C16.3994 3.38667 16.2819 3.33333 16.1542 3.33333H3.84583C3.71806 3.33333 3.60056 3.38667 3.49333 3.49333C3.38667 3.60056 3.33333 3.71806 3.33333 3.84583V14.7042L4.70833 13.3333Z" fill="white"/>
<path d="M3.33333 13.3333V3.33333M5.41667 11.25H11.25V10.4167H5.41667V11.25ZM5.41667 8.75H14.5833V7.91667H5.41667V8.75ZM5.41667 6.25H14.5833V5.41667H5.41667V6.25ZM2.5 16.7308V3.84583C2.5 3.4625 2.62861 3.1425 2.88583 2.88583C3.1425 2.62861 3.4625 2.5 3.84583 2.5H16.1542C16.5375 2.5 16.8575 2.62861 17.1142 2.88583C17.3714 3.1425 17.5 3.4625 17.5 3.84583V12.8208C17.5 13.2042 17.3717 13.5244 17.115 13.7817C16.8578 14.0383 16.5375 14.1667 16.1542 14.1667H5.06417L2.5 16.7308ZM4.70833 13.3333H16.1542C16.2819 13.3333 16.3994 13.28 16.5067 13.1733C16.6133 13.0661 16.6667 12.9486 16.6667 12.8208V3.84583C16.6667 3.71806 16.6133 3.60056 16.5067 3.49333C16.3994 3.38667 16.2819 3.33333 16.1542 3.33333H3.84583C3.71806 3.33333 3.60056 3.38667 3.49333 3.49333C3.38667 3.60056 3.33333 3.71806 3.33333 3.84583V14.7042L4.70833 13.3333Z" stroke="white" stroke-width="0.3"/>
</svg>
